<svg xmlns="http://www.w3.org/2000/svg" width="18" height="18">

    <!-- Left Curly Bracket -->
    <path d="M 4 2 C 2.5 2 2 3 3 7" stroke="rgb(120, 250, 200)" stroke-width="0.75" fill="transparent" stroke-linecap="round" />
    <path d="M 3 7 Q 3.5 9 1 9" stroke="rgb(120, 250, 200)" stroke-width="0.75" fill="transparent" stroke-linecap="round" />
    <path d="M 3 11 Q 3.5 9 1 9" stroke="rgb(120, 250, 200)" stroke-width="0.75" fill="transparent" stroke-linecap="round" />
    <path d="M 4 16 C 2.5 16 2 15 3 11" stroke="rgb(120, 250, 200)" stroke-width="0.75" fill="transparent" stroke-linecap="round" />

    <!-- Right Curly Bracket -->
    <path d="M 14 2 C 15.5 2 16 3 15 7" stroke="rgb(120, 250, 200)" stroke-width="0.75" fill="transparent" stroke-linecap="round" />
    <path d="M 15 7 Q 14.5 9 17 9" stroke="rgb(120, 250, 200)" stroke-width="0.75" fill="transparent" stroke-linecap="round" />
    <path d="M 15 11 Q 14.5 9 17 9" stroke="rgb(120, 250, 200)" stroke-width="0.75" fill="transparent" stroke-linecap="round" />
    <path d="M 14 16 C 15.5 16 16 15 15 11" stroke="rgb(120, 250, 200)" stroke-width="0.75" fill="transparent" stroke-linecap="round" />

    <!-- Lock -->
    <path d="M 9.01 4 Q 7 4 7 6.25" stroke="rgb(40, 90, 110)" fill="transparent" stroke-width="0.75" />
    <path d="M 8.99 4 Q 11 4 11 6.25" stroke="rgb(40, 90, 110)" fill="transparent" stroke-width="0.75" />
    <polygon points="6 7.25, 6.25 7, 11.75 7, 12 7.25, 12 12, 10 13, 8 13, 6 12, 6 7.25" stroke="rgb(40, 90, 110)" fill="transparent" stroke-width="0.75" stroke-linejoin="round" />
    <path d="M 8.25 9.25 L 9 10.75 9.75 9.25" stroke="rgb(120, 250, 200)" fill="transparent" stroke-width="0.5" stroke-linejoin="round" stroke-linecap="round" />

</svg>